<?xml version="1.0" encoding="iso-8859-1"?>
<!-- Generator: Adobe Illustrator 26.0.1, SVG Export Plug-In . SVG Version: 6.00 Build 0)  -->
<svg version="1.1" id="Layer_1" xmlns="http://www.w3.org/2000/svg" xmlns:xlink="http://www.w3.org/1999/xlink" x="0px" y="0px"
	 viewBox="0 0 1000 1000" style="enable-background:new 0 0 1000 1000;" xml:space="preserve">
<g>
</g>
<g>
	<path style="fill:#15CCFF;" d="M1000,1000H0V0H1000V1000z"/>
	<g>
		<path d="M532.81,671.239c0-28.4,23.022-51.422,51.424-51.422c28.404,0,51.426,23.022,51.426,51.422
			c0,28.403-23.022,51.425-51.426,51.425C555.832,722.665,532.81,699.643,532.81,671.239"/>
		<path d="M744.76,445.986c-4.787-28.285-16.043-54.816-33.401-78.862c-19.661-27.116-46.52-49.773-77.692-65.487
			c-31.501-15.897-66.693-24.302-101.738-24.302c-9.867,0-19.844,0.658-29.601,2.01c-40.893,5.518-81.128,22.511-113.25,47.909
			c-36.215,28.577-59.567,65.341-67.57,106.306c-2.375,12.169-3.399,25.617-4.385,38.664c-1.535,20.392-3.106,41.441-9.611,55.218
			c-4.422,9.428-11.036,15.714-28.906,15.714c-9.83,0-18.82,5.555-23.206,14.362c-4.385,8.807-3.435,19.332,2.485,27.152
			c60.48,80.25,162.365,89.533,233.735,89.533c1.754,0,3.545,0,5.262-0.037h9.903c2.302,0.037,4.641,0.037,7.09,0.037
			c33.255,0,68.447-1.644,100.532-13.631c26.75-9.976,52.221-26.092,73.636-46.667c23.169-22.219,40.162-48.457,49.152-75.829
			C747.354,507.233,749.875,476.281,744.76,445.986z M712.564,529.964c-16.189,49.298-61.357,89.204-107.22,106.306
			c-29.893,11.146-64.829,11.986-91.469,11.986c-4.678,0-9.063-0.037-13.156-0.037c-1.389,0-2.704,0.037-3.983,0.037h-5.116
			c-66.985,0-159.478-8.186-213.015-79.191c73.344,0,58.872-81.931,68.374-130.535c14.435-74.075,87.705-123.884,158.82-133.495
			c8.734-1.169,17.504-1.754,26.129-1.754C648.795,303.282,752.799,407.615,712.564,529.964z"/>
		<path style="fill:#FFFFFF;" d="M712.564,529.964c-16.189,49.298-61.357,89.204-107.22,106.306
			c-29.893,11.146-64.829,11.986-91.469,11.986c-4.678,0-9.063-0.037-13.156-0.037c-1.389,0-2.704,0.037-3.983,0.037h-5.116
			c-66.985,0-159.478-8.186-213.015-79.191c73.344,0,58.872-81.931,68.374-130.535c14.435-74.075,87.705-123.884,158.82-133.495
			c8.734-1.169,17.504-1.754,26.129-1.754C648.795,303.282,752.799,407.615,712.564,529.964z"/>
		<path d="M498.584,432.469c0,13.755-11.15,24.904-24.906,24.904c-13.75,0-24.904-11.149-24.904-24.904
			c0-13.756,11.154-24.901,24.904-24.901C487.434,407.568,498.584,418.713,498.584,432.469"/>
		<path d="M614.934,432.469c0,13.755-11.15,24.904-24.904,24.904c-13.752,0-24.905-11.149-24.905-24.904
			c0-13.756,11.152-24.901,24.905-24.901C603.784,407.568,614.934,418.713,614.934,432.469"/>
		<path d="M530.964,566.011c-42.202,0-80.215-27.667-87.188-63.88c-1.351-7.032,3.253-13.829,10.283-15.181
			c7.036-1.36,13.832,3.249,15.185,10.28c4.097,21.295,29.59,43.71,63.572,42.827c35.397-0.931,58.781-22.098,63.586-42.523
			c1.642-6.971,8.628-11.288,15.594-9.655c6.968,1.642,11.292,8.622,9.652,15.594c-3.922,16.668-14.662,32.122-30.245,43.508
			c-16.226,11.859-36.248,18.429-57.903,19C532.651,566,531.808,566.011,530.964,566.011"/>
		<path d="M354.318,671.239c0-28.4,23.024-51.422,51.426-51.422c28.402,0,51.424,23.022,51.424,51.422
			c0,28.403-23.022,51.425-51.424,51.425C377.342,722.665,354.318,699.643,354.318,671.239"/>
	</g>
</g>
</svg>
